<svg xmlns="http://www.w3.org/2000/svg" xmlns:xlink="http://www.w3.org/1999/xlink" width="36" height="36" viewBox="0 0 36 36"><defs><style>.a{fill:none;}.b{clip-path:url(#a);}.c{fill:url(#b);}.d{fill:url(#c);}.e,.f{fill:#fff;}.f{opacity:0;}.g{fill:url(#d);}</style><clipPath id="a"><rect class="a" width="36" height="36"/></clipPath><linearGradient id="b" y1="0.5" x2="1" y2="0.5" gradientUnits="objectBoundingBox"><stop offset="0" stop-color="#fee857"/><stop offset="0.994" stop-color="#ffb430"/></linearGradient><linearGradient id="c" y1="0.5" x2="1" y2="0.5" gradientUnits="objectBoundingBox"><stop offset="0" stop-color="#89d7ff"/><stop offset="0.171" stop-color="#80d2fb"/><stop offset="0.449" stop-color="#68c6f1"/><stop offset="0.797" stop-color="#41b2e2"/><stop offset="1" stop-color="#27a5d8"/></linearGradient><linearGradient id="d" x1="0" y1="0.5" y2="0.5" xlink:href="#c"/></defs><g class="b"><path class="c" d="M198,390a12,12,0,1,1,12-12,12,12,0,0,1-12,12" transform="translate(-180 -360)"/><path class="d" d="M201.181,394.857A11.69,11.69,0,0,0,203,388.566a11.614,11.614,0,0,0-7.066-2.672,16.789,16.789,0,0,0-2.561,2.7c-1.312-.45-2.741-1.885-4.007-3.427s-2.4-3.225-2.584-4.6a16.737,16.737,0,0,0,3.14-2,11.668,11.668,0,0,0-1.251-7.462,14.483,14.483,0,0,0-7.1.929c-.984,2.932-1.314,9.541,4.175,16.494,5.748,6.739,12.369,6.727,15.429,6.326" transform="translate(-180 -360)"/><g transform="translate(12.75 12.75)"><path class="e" d="M198.125,379.81h-3.268l2-2.2a3.86,3.86,0,0,0,1.241-2.518v-.109c0-1.353-1.034-2.228-2.633-2.228a2.9,2.9,0,0,0-2.667,1.717.249.249,0,0,0,.082.325l.8.536a.259.259,0,0,0,.2.035.248.248,0,0,0,.159-.124,1.564,1.564,0,0,1,1.442-1.016c.666,0,1.063.282,1.063.755v.087c0,.349-.068.739-.889,1.67l-2.849,3.191a.249.249,0,0,0-.063.167V381a.25.25,0,0,0,.25.25h5.125a.25.25,0,0,0,.25-.25v-.94A.25.25,0,0,0,198.125,379.81Z" transform="translate(-192.75 -372.75)"/><path class="e" d="M205,378.138h-.83v-2.165a.249.249,0,0,0-.25-.25h-1.038a.249.249,0,0,0-.25.25v2.165h-1.866l3.256-4.879a.251.251,0,0,0-.208-.389H202.66a.253.253,0,0,0-.208.111l-3.59,5.377a.255.255,0,0,0-.042.139v.809a.25.25,0,0,0,.25.25h3.562V381a.25.25,0,0,0,.25.25h1.038a.25.25,0,0,0,.25-.25v-1.444H205a.25.25,0,0,0,.25-.25v-.918A.25.25,0,0,0,205,378.138Z" transform="translate(-192.75 -372.75)"/></g><rect class="f" width="36" height="36"/><g transform="translate(4.997 2)"><path class="g" d="M198,362a15.978,15.978,0,0,0-13,6.712l.807.577A14.99,14.99,0,1,1,204.7,391.4l.444.889A15.987,15.987,0,0,0,198,362Z" transform="translate(-184.997 -362)"/></g></g></svg>