<svg xmlns="http://www.w3.org/2000/svg" xmlns:xlink="http://www.w3.org/1999/xlink" width="36" height="36" viewBox="0 0 36 36"><defs><style>.a{fill:none;}.b{clip-path:url(#a);}.c{fill:url(#b);}.d{fill:#2f8fd6;}.e{fill:url(#d);}.f,.g{fill:#fff;}.g{opacity:0;}</style><clipPath id="a"><rect class="a" width="36" height="36"/></clipPath><linearGradient id="b" y1="0.5" x2="1" y2="0.5" gradientUnits="objectBoundingBox"><stop offset="0" stop-color="#89d7ff"/><stop offset="0.171" stop-color="#80d2fb"/><stop offset="0.449" stop-color="#68c6f1"/><stop offset="0.797" stop-color="#41b2e2"/><stop offset="1" stop-color="#27a5d8"/></linearGradient><linearGradient id="d" y1="0.5" x2="1" y2="0.5" gradientUnits="objectBoundingBox"><stop offset="0" stop-color="#fee857"/><stop offset="0.994" stop-color="#ffb430"/></linearGradient></defs><g class="b"><path class="c" d="M145.663,383h30.674a.647.647,0,0,1,.663.631v10.738a.647.647,0,0,1-.663.631H145.663a.647.647,0,0,1-.663-.631V383.631A.647.647,0,0,1,145.663,383Z" transform="translate(-144 -360)"/><circle class="d" cx="1" cy="1" r="1" transform="translate(4 28)"/><circle class="d" cx="1" cy="1" r="1" transform="translate(8 28)"/><path class="c" d="M145.663,370h30.674a.647.647,0,0,1,.663.631v10.738a.647.647,0,0,1-.663.631H145.663a.647.647,0,0,1-.663-.631V370.631A.647.647,0,0,1,145.663,370Z" transform="translate(-144 -360)"/><circle class="d" cx="1" cy="1" r="1" transform="translate(4 15)"/><circle class="d" cx="1" cy="1" r="1" transform="translate(8 15)"/><g transform="translate(13 1)"><path class="e" d="M168,387a30.533,30.533,0,0,1-5.571-4.247,21.367,21.367,0,0,1-3.389-4.232,13.851,13.851,0,0,1-2.015-5.51c-.022-.217-.025-.346-.025-.361v-8.71a20.045,20.045,0,0,0,2.612-.36c.322-.065.66-.138,1-.218.317-.074.653-.157,1-.248.311-.081.632-.169.982-.27.29-.082.6-.175.951-.282,2.076-.638,3.8-1.3,4.453-1.562.655.26,2.377.924,4.453,1.562.35.107.661.2.951.283.35.1.671.188.982.269.346.091.682.174,1,.248.342.08.68.153,1,.217a19.894,19.894,0,0,0,2.612.361v8.71c0,.015,0,.144-.026.362a13.829,13.829,0,0,1-2.014,5.509,21.367,21.367,0,0,1-3.389,4.232A30.533,30.533,0,0,1,168,387Z" transform="translate(-157 -361)"/></g><path class="f" d="M168,377l-4-3.818,1.333-1.273L168,374.455,172.667,370,174,371.273Z" transform="translate(-144 -360)"/><rect class="g" width="36" height="36"/></g></svg>