<svg xmlns="http://www.w3.org/2000/svg" xmlns:xlink="http://www.w3.org/1999/xlink" width="36" height="36" viewBox="0 0 36 36"><defs><style>.a{fill:none;}.b{clip-path:url(#a);}.c{fill:url(#b);}.d{fill:#2f8fd6;}.e{fill:url(#c);}.f,.g{fill:#fff;}.g{opacity:0;}</style><clipPath id="a"><rect class="a" width="36" height="36"/></clipPath><linearGradient id="b" y1="0.5" x2="1" y2="0.5" gradientUnits="objectBoundingBox"><stop offset="0" stop-color="#89d7ff"/><stop offset="0.171" stop-color="#80d2fb"/><stop offset="0.449" stop-color="#68c6f1"/><stop offset="0.797" stop-color="#41b2e2"/><stop offset="1" stop-color="#27a5d8"/></linearGradient><linearGradient id="c" y1="0.5" x2="1" y2="0.5" gradientUnits="objectBoundingBox"><stop offset="0" stop-color="#fee857"/><stop offset="0.994" stop-color="#ffb430"/></linearGradient></defs><g class="b"><circle class="c" cx="14" cy="14" r="14" transform="translate(4 8)"/><path class="d" d="M130,395l-4-4-4,4V385h8Z" transform="translate(-108 -360)"/><path class="e" d="M127.248,360.724h0a1.442,1.442,0,0,0,2.184.379h0a1.441,1.441,0,0,1,2.015.144,1.4,1.4,0,0,1,.33.7h0a1.426,1.426,0,0,0,1.636,1.168,1.374,1.374,0,0,0,.283-.075h0a1.435,1.435,0,0,1,1.844.814,1.392,1.392,0,0,1,.068.769h0a1.409,1.409,0,0,0,1.133,1.649,1.432,1.432,0,0,0,.292.026h0a1.419,1.419,0,0,1,1.45,1.387,1.4,1.4,0,0,1-.2.745h0a1.4,1.4,0,0,0,.492,1.932,1.562,1.562,0,0,0,.266.122h0a1.4,1.4,0,0,1,.433,2.424h0a1.4,1.4,0,0,0,0,2.187h0a1.4,1.4,0,0,1,.208,1.982,1.43,1.43,0,0,1-.641.443h0a1.4,1.4,0,0,0-.882,1.792,1.362,1.362,0,0,0,.124.262h0a1.4,1.4,0,0,1-.492,1.932,1.442,1.442,0,0,1-.756.2h0a1.419,1.419,0,0,0-1.45,1.388,1.388,1.388,0,0,0,.025.287h0a1.41,1.41,0,0,1-1.133,1.65,1.447,1.447,0,0,1-.779-.068h0a1.434,1.434,0,0,0-1.843.815,1.355,1.355,0,0,0-.076.279h0a1.436,1.436,0,0,1-2.345.842h0a1.442,1.442,0,0,0-2.015.142,1.418,1.418,0,0,0-.169.237h0a1.44,1.44,0,0,1-1.943.546,1.423,1.423,0,0,1-.553-.546h0a1.442,1.442,0,0,0-2.184-.379h0a1.442,1.442,0,0,1-2.015-.144,1.406,1.406,0,0,1-.33-.7h0a1.426,1.426,0,0,0-1.636-1.168,1.442,1.442,0,0,0-.283.074h0a1.433,1.433,0,0,1-1.844-.814,1.388,1.388,0,0,1-.068-.768h0a1.411,1.411,0,0,0-1.134-1.65,1.489,1.489,0,0,0-.291-.025h0a1.419,1.419,0,0,1-1.45-1.387,1.4,1.4,0,0,1,.2-.745h0a1.407,1.407,0,0,0-.758-2.054h0a1.4,1.4,0,0,1-.433-2.425h0a1.4,1.4,0,0,0,.207-1.982,1.432,1.432,0,0,0-.207-.2h0a1.4,1.4,0,0,1-.208-1.982,1.435,1.435,0,0,1,.641-.442h0a1.4,1.4,0,0,0,.882-1.792,1.363,1.363,0,0,0-.124-.262h0a1.4,1.4,0,0,1,.492-1.933,1.45,1.45,0,0,1,.756-.2h0a1.419,1.419,0,0,0,1.45-1.387,1.39,1.39,0,0,0-.025-.288h0a1.41,1.41,0,0,1,1.133-1.65,1.447,1.447,0,0,1,.779.067h0a1.434,1.434,0,0,0,1.843-.814,1.355,1.355,0,0,0,.076-.279h0a1.435,1.435,0,0,1,2.345-.842h0a1.443,1.443,0,0,0,2.015-.142,1.459,1.459,0,0,0,.169-.237h0a1.439,1.439,0,0,1,1.944-.545A1.412,1.412,0,0,1,127.248,360.724Z" transform="translate(-108 -360)"/><path class="f" d="M120.477,374.977c0,.672.416.789.6.789a.559.559,0,0,0,.565-.555c0-.3-.243-.4-1.138-.773-.408-.164-1.42-.571-1.42-1.656A1.889,1.889,0,0,1,121.12,371a1.8,1.8,0,0,1,1.954,1.8h-1.468c-.031-.195-.078-.563-.533-.563a.483.483,0,0,0-.51.454c0,.265.157.336,1.2.8,1.083.485,1.358.985,1.358,1.657A1.764,1.764,0,0,1,121.1,377a1.838,1.838,0,0,1-2.1-2.023Zm3.39-3.867h1.483v4.484h1.718v1.3h-3.2Zm4.936,5.781h-1.609l2.3-5.781h1.279L133,376.891h-1.624l-.274-.836h-2.033Zm1.263-4.024-.628,2.016h1.279Z" transform="translate(-108 -360)"/><path class="f" d="M134.127,368.195a10.16,10.16,0,0,0-1.059-1.263l.707-.707a11.155,11.155,0,0,1,1.165,1.39Zm.807,10.272a9.956,9.956,0,0,1-14.072,4.1l-.514.856a10.951,10.951,0,0,0,15.479-4.5Zm-18.353,1.185a11.06,11.06,0,0,0,2.122,2.557l.664-.746a10.062,10.062,0,0,1-1.93-2.325ZM126,364a9.94,9.94,0,0,1,5.544,1.684l.554-.832a10.954,10.954,0,0,0-14.261,1.8l.742.668A9.964,9.964,0,0,1,126,364Z" transform="translate(-108 -360)"/><rect class="g" width="36" height="36"/></g></svg>